<?xml version="1.0" encoding="UTF-8"?>
<svg width="721px" height="63px" viewBox="0 0 721 63" version="1.1" xmlns="http://www.w3.org/2000/svg" xmlns:xlink="http://www.w3.org/1999/xlink">
    <title>lda-logo</title>
    <g id="Page-1" stroke="none" stroke-width="1" fill="none" fill-rule="evenodd">
        <g id="lda-logo" transform="translate(0.824700, 0.000000)">
            <g id="Group-2" transform="translate(125.521300, 17.380400)" fill-rule="nonzero">
                <path d="M0.654,0 L2.2609,0 L2.2609,7.25 L9.1618,7.25 L9.1618,8.5073 L0.654,8.5073 L0.654,0 Z M12.3269,4.6416 L12.3269,7.25 L19.4675,7.25 L19.4675,8.5073 L10.718,8.5073 L10.718,0 L19.4675,0 L19.4675,1.2583 L12.3269,1.2583 L12.3269,3.3857 L19.1042,3.3857 L19.1042,4.6416 L12.3269,4.6416 Z M33.1389,8.5073 L31.4011,8.5073 L26.944,1.5581 L22.4094,8.5073 L20.6945,8.5073 L26.3488,0 L27.5212,0 L33.1389,8.5073 Z M41.8561,7.25 C43.131,7.25 43.7683,6.9048 43.7683,6.2138 L43.7683,2.3208 C43.7683,1.6137 43.131,1.2583 41.8561,1.2583 L36.0344,1.2583 L36.0344,7.25 L41.8561,7.25 Z M34.4274,0 L41.8561,0 C44.2033,0 45.3747,0.7749 45.3747,2.3208 L45.3747,6.2138 C45.3747,7.7422 44.2033,8.5073 41.8561,8.5073 L34.4274,8.5073 L34.4274,0 Z M48.6701,4.6416 L48.6701,7.25 L55.8102,7.25 L55.8102,8.5073 L47.0617,8.5073 L47.0617,0 L55.8102,0 L55.8102,1.2583 L48.6701,1.2583 L48.6701,3.3857 L55.4484,3.3857 L55.4484,4.6416 L48.6701,4.6416 Z M59.0681,1.2583 L59.0681,3.4565 L64.1911,3.4565 C65.1423,3.4565 65.6169,3.2661 65.6169,2.8779 L65.6169,1.8374 C65.6169,1.4502 65.1423,1.2583 64.1911,1.2583 L59.0681,1.2583 Z M57.4616,8.5073 L57.4616,0 L64.1911,0 C66.2126,0 67.2238,0.6147 67.2238,1.8374 L67.2238,2.8779 C67.2238,3.9013 66.5231,4.4956 65.1198,4.6655 L67.1389,8.5073 L65.4235,8.5073 L63.4299,4.7148 L59.0681,4.7148 L59.0681,8.5073 L57.4616,8.5073 Z M76.3796,3.3476 C78.3986,3.3476 79.4113,3.9599 79.4113,5.1845 L79.4113,6.6977 C79.4113,7.9033 78.3986,8.5073 76.3796,8.5073 L69.1193,8.5073 L69.1193,7.25 L76.3796,7.25 C77.3308,7.25 77.8049,7.0664 77.8049,6.6977 L77.8049,5.1845 C77.8049,4.7973 77.3308,4.6059 76.3796,4.6059 L71.8605,4.6059 C69.8381,4.6059 68.8264,3.9931 68.8264,2.768 L68.8264,1.8374 C68.8264,0.6147 69.8381,0 71.8605,0 L78.8796,0 L78.8796,1.2583 L71.8605,1.2583 C70.9103,1.2583 70.4328,1.4502 70.4328,1.8374 L70.4328,2.768 C70.4328,3.1552 70.9103,3.3476 71.8605,3.3476 L76.3796,3.3476 Z M89.6271,4.6416 L82.6677,4.6416 L82.6677,8.5073 L81.0603,8.5073 L81.0603,0 L82.6677,0 L82.6677,3.3857 L89.6271,3.3857 L89.6271,0 L91.2355,0 L91.2355,8.5073 L89.6271,8.5073 L89.6271,4.6416 Z M92.9855,8.5073 L94.5929,8.5073 L94.5929,0 L92.9855,0 L92.9855,8.5073 Z M97.9758,1.2583 L97.9758,4.1113 L102.978,4.1113 C103.93,4.1113 104.404,3.9165 104.404,3.5288 L104.404,1.8374 C104.404,1.4502 103.93,1.2583 102.978,1.2583 L97.9758,1.2583 Z M96.3679,8.5073 L96.3679,0 L102.978,0 C105.001,0 106.012,0.6147 106.012,1.8374 L106.012,3.5288 C106.012,4.7534 105.001,5.3662 102.978,5.3662 L97.9758,5.3662 L97.9758,8.5073 L96.3679,8.5073 Z" id="Combined-Shape" fill="#2E478A"></path>
                <path d="M7.833,25.25 C9.107,25.25 9.744,24.9048 9.744,24.2138 L9.744,20.3208 C9.744,19.6137 9.107,19.2583 7.833,19.2583 L2.01,19.2583 L2.01,25.25 L7.833,25.25 Z M0.404,18 L7.833,18 C10.177,18 11.349,18.7749 11.349,20.3208 L11.349,24.2138 C11.349,25.7422 10.177,26.5073 7.833,26.5073 L0.404,26.5073 L0.404,18 Z M14.647,22.6416 L14.647,25.25 L21.786,25.25 L21.786,26.5073 L13.04,26.5073 L13.04,18 L21.786,18 L21.786,19.2583 L14.647,19.2583 L14.647,21.3857 L21.425,21.3857 L21.425,22.6416 L14.647,22.6416 Z M30.91,21.3476 C32.931,21.3476 33.944,21.9599 33.944,23.1845 L33.944,24.6977 C33.944,25.9033 32.931,26.5073 30.91,26.5073 L23.648,26.5073 L23.648,25.25 L30.91,25.25 C31.861,25.25 32.337,25.0664 32.337,24.6977 L32.337,23.1845 C32.337,22.7973 31.861,22.6059 30.91,22.6059 L26.392,22.6059 C24.369,22.6059 23.357,21.9931 23.357,20.768 L23.357,19.8374 C23.357,18.6147 24.369,18 26.392,18 L33.412,18 L33.412,19.2583 L26.392,19.2583 C25.441,19.2583 24.964,19.4502 24.964,19.8374 L24.964,20.768 C24.964,21.1552 25.441,21.3476 26.392,21.3476 L30.91,21.3476 Z M35.592,26.5073 L37.2004,26.5073 L37.2004,18 L35.592,18 L35.592,26.5073 Z M47.161,21.8667 L48.77,21.8667 L48.77,24.6977 C48.77,25.9033 47.757,26.5073 45.736,26.5073 L41.98,26.5073 C39.956,26.5073 38.945,25.896 38.945,24.6709 L38.945,19.8374 C38.945,18.6147 39.956,18 41.98,18 L48.637,18 L48.637,19.2583 L41.98,19.2583 C41.029,19.2583 40.551,19.4502 40.551,19.8374 L40.551,24.6709 C40.551,25.0591 41.029,25.25 41.98,25.25 L45.736,25.25 C46.689,25.25 47.161,25.0664 47.161,24.6977 L47.161,21.8667 Z M51.96,20.0322 L51.96,26.5073 L50.439,26.5073 L50.439,18 L51.705,18 L60.175,24.5283 L60.175,18 L61.7,18 L61.7,26.5073 L60.431,26.5073 L51.96,20.0322 Z" id="Combined-Shape" fill="#4276A5"></path>
                <path d="M12.445,45.3269 L10.706,45.3269 L6.248,38.3777 L1.716,45.3269 L0,45.3269 L5.654,36.8196 L6.827,36.8196 L12.445,45.3269 Z M13.608,36.8196 L15.215,36.8196 L15.215,44.0696 L22.113,44.0696 L22.113,45.3269 L13.608,45.3269 L13.608,36.8196 Z M33.143,44.0696 L33.143,45.3269 L26.654,45.3269 C24.634,45.3269 23.624,44.6765 23.624,43.3684 L23.624,38.7781 C23.624,37.4724 24.634,36.8196 26.654,36.8196 L33.143,36.8196 L33.143,38.0779 L26.654,38.0779 C25.704,38.0779 25.232,38.3132 25.232,38.7781 L25.232,43.3684 C25.232,43.8376 25.704,44.0696 26.654,44.0696 L33.143,44.0696 Z M43.361,41.4612 L36.401,41.4612 L36.401,45.3269 L34.795,45.3269 L34.795,36.8196 L36.401,36.8196 L36.401,40.2053 L43.361,40.2053 L43.361,36.8196 L44.967,36.8196 L44.967,45.3269 L43.361,45.3269 L43.361,41.4612 Z M48.332,41.4612 L48.332,44.0696 L55.471,44.0696 L55.471,45.3269 L46.724,45.3269 L46.724,36.8196 L55.471,36.8196 L55.471,38.0779 L48.332,38.0779 L48.332,40.2053 L55.106,40.2053 L55.106,41.4612 L48.332,41.4612 Z M57.121,36.8196 L58.619,36.8196 L63.67,43.7693 L68.697,36.8196 L70.074,36.8196 L70.074,45.3269 L68.527,45.3269 L68.527,39.4187 L64.264,45.3269 L62.945,45.3269 L58.667,39.4314 L58.667,45.3269 L57.121,45.3269 L57.121,36.8196 Z M71.821,45.3269 L73.427,45.3269 L73.427,36.8196 L71.821,36.8196 L71.821,45.3269 Z M82.653,40.1672 C84.674,40.1672 85.687,40.7795 85.687,42.0041 L85.687,43.5173 C85.687,44.7229 84.674,45.3269 82.653,45.3269 L75.392,45.3269 L75.392,44.0696 L82.653,44.0696 C83.603,44.0696 84.08,43.886 84.08,43.5173 L84.08,42.0041 C84.08,41.6169 83.603,41.4255 82.653,41.4255 L78.133,41.4255 C76.114,41.4255 75.101,40.8127 75.101,39.5876 L75.101,38.657 C75.101,37.4343 76.114,36.8196 78.133,36.8196 L85.155,36.8196 L85.155,38.0779 L78.133,38.0779 C77.186,38.0779 76.708,38.2698 76.708,38.657 L76.708,39.5876 C76.708,39.9748 77.186,40.1672 78.133,40.1672 L82.653,40.1672 Z M86.804,36.8196 L97.207,36.8196 L97.207,38.0779 L92.871,38.0779 L92.871,45.3269 L91.263,45.3269 L91.263,38.0779 L86.804,38.0779 L86.804,36.8196 Z M106.129,40.1672 C108.153,40.1672 109.163,40.7795 109.163,42.0041 L109.163,43.5173 C109.163,44.7229 108.153,45.3269 106.129,45.3269 L98.868,45.3269 L98.868,44.0696 L106.129,44.0696 C107.081,44.0696 107.555,43.886 107.555,43.5173 L107.555,42.0041 C107.555,41.6169 107.081,41.4255 106.129,41.4255 L101.61,41.4255 C99.59,41.4255 98.58,40.8127 98.58,39.5876 L98.58,38.657 C98.58,37.4343 99.59,36.8196 101.61,36.8196 L108.632,36.8196 L108.632,38.0779 L101.61,38.0779 C100.66,38.0779 100.187,38.2698 100.187,38.657 L100.187,39.5876 C100.187,39.9748 100.66,40.1672 101.61,40.1672 L106.129,40.1672 Z" id="Combined-Shape" fill="#2E478A"></path>
            </g>
            <polygon id="Fill-1" fill="#2E478A" fill-rule="nonzero" points="8.6426 55.8965 8.6426 16.896 0 16.896 0 62.6577 21.1883 62.6577 21.1883 55.8965"></polygon>
            <path d="M52.4883,16.896 L12.5142,16.896 L12.5142,52.021 L21.1583,52.021 L21.1583,23.6572 L52.4883,23.6572 C59.3333,23.6572 62.7573,25.5635 62.7573,29.376 L62.7573,50.3066 C62.7573,54.0361 59.3333,55.8965 52.4883,55.8965 L27.0873,55.8965 L27.0873,55.9058 L25.0633,55.9058 L25.0633,62.6577 L52.4883,62.6577 C65.0993,62.6577 71.4033,58.543 71.4033,50.3066 L71.4033,29.376 C71.4033,21.0566 65.0993,16.896 52.4883,16.896 Z" id="Fill-2" fill="#4276A5" fill-rule="nonzero"></path>
            <polygon id="Fill-3" fill="#2E478A" fill-rule="nonzero" points="92.4513 16.896 86.1433 16.896 74.6023 34.2559 74.6023 47.8628 89.3303 25.2827 113.3133 62.6577 122.6743 62.6577"></polygon>
            <g id="Group" transform="translate(65.043300, 0.000000)" fill-rule="nonzero">
                <path d="M9.887,0 C4.434,0 0,4.4351 0,9.8857 C0,15.3359 4.434,19.7705 9.887,19.7705 C15.336,19.7705 19.775,15.3359 19.775,9.8857 C19.775,4.4351 15.336,0 9.887,0 Z" id="Fill-4" fill="#4276A5"></path>
                <path d="M8.62,8.3818 C9.445,8.0508 10.023,7.25 10.023,6.3091 C10.023,5.0767 9.019,4.0762 7.79,4.0762 C6.555,4.0762 5.557,5.0767 5.557,6.3091 C5.557,6.7588 5.815,7.436 5.246,7.1411 C4.992,7.0098 3.625,6.2998 2.188,5.5493 C1.458,6.8311 1.044,8.3096 1.044,9.8857 C1.044,14.7686 5,18.727 9.887,18.727 L9.887,15.6987 C9.884,15.543 9.88,15.4014 9.875,15.2861 C9.845,14.647 9.39,15.2095 8.998,15.4326 C7.93,16.0508 6.562,15.6851 5.949,14.6167 C5.333,13.5483 5.691,12.1841 6.767,11.563 C7.578,11.0947 8.568,11.1963 9.257,11.7441 C9.479,11.9131 9.832,12.1738 9.862,11.561 C9.887,10.9512 9.857,9.9399 9.857,9.9399 L9.887,9.9219 L9.887,9.8013 C9.887,9.8013 8.992,9.3208 8.479,8.9912 C7.958,8.6655 8.368,8.4873 8.62,8.3818 Z" id="Fill-5" fill="#4276A5"></path>
                <path d="M14.595,7.2222 C14.861,7.0464 16.289,6.3291 17.652,5.6572 C16.149,2.9067 13.236,1.0425 9.887,1.0425 C6.568,1.0425 3.684,2.8691 2.168,5.5703 L4.862,6.9619 C4.997,7.0356 5.126,7.1055 5.226,7.1553 C5.792,7.4507 5.539,6.772 5.539,6.3242 C5.539,5.0928 6.535,4.0913 7.768,4.0913 C9.002,4.0913 10.004,5.0928 10.004,6.3232 C10.004,7.2656 9.423,8.0703 8.601,8.3965 C8.345,8.499 7.939,8.6802 8.457,9.0088 C8.973,9.3335 9.865,9.8144 9.865,9.8144 L9.865,9.8481 L9.968,9.9092 C9.968,9.9092 10.833,9.375 11.369,9.0942 C11.922,8.8081 11.871,9.2485 11.833,9.521 C11.705,10.4014 12.112,11.3057 12.926,11.7744 C13.992,12.3906 15.361,12.0269 15.98,10.957 C16.593,9.8906 16.224,8.5215 15.16,7.9062 C14.769,7.6841 14.05,7.5674 14.595,7.2222 Z" id="Fill-6" fill="#2E478A"></path>
                <path d="M14.591,7.2075 C14.048,7.5537 14.762,7.6724 15.152,7.894 C16.222,8.5161 16.585,9.8794 15.967,10.9478 C15.35,12.0132 13.99,12.3804 12.922,11.7637 C12.104,11.292 11.702,10.3896 11.823,9.5117 C11.865,9.2407 11.91,8.7969 11.363,9.084 C10.825,9.3648 9.968,9.8984 9.968,9.8984 L9.937,9.8823 L9.832,9.9448 C9.832,9.9448 9.862,10.9536 9.832,11.5645 C9.808,12.1777 9.456,11.9175 9.233,11.749 C8.537,11.1987 7.553,11.0996 6.737,11.5689 C5.671,12.1841 5.302,13.5518 5.921,14.6187 C6.535,15.689 7.905,16.0557 8.973,15.438 C9.362,15.2109 9.819,14.6504 9.847,15.291 C9.865,15.6221 9.865,17.2358 9.865,18.727 L9.887,18.727 C14.769,18.727 18.729,14.7686 18.729,9.8857 C18.729,8.3535 18.339,6.9165 17.654,5.6606 L14.941,6.9932 C14.805,7.0742 14.682,7.1475 14.591,7.2075 Z" id="Fill-7" fill="#FFFFFE"></path>
            </g>
            <g id="Group" transform="translate(250.684300, 23.000000)" fill="#B8971F">
                <path d="M376.802,22.226 C379.476,22.226 380.815,23.036 380.815,24.66 L380.815,26.035 C380.815,27.388 379.888,28.175 378.031,28.402 L380.705,33.487 L378.431,33.487 L375.795,28.465 L370.02,28.465 L370.02,33.487 L367.894,33.487 L367.894,22.226 L376.802,22.226 Z M276.057,22.226 L282.039,31.423 L287.955,22.226 L290.212,22.226 L282.775,33.487 L281.225,33.487 L273.74,22.226 L276.057,22.226 Z M297.24,22.226 L304.678,33.487 L302.374,33.487 L296.472,24.291 L290.478,33.487 L288.203,33.487 L295.688,22.226 L297.24,22.226 Z M308.39,22.226 L308.39,31.822 L317.521,31.822 L317.521,33.487 L306.261,33.487 L306.261,22.226 L308.39,22.226 Z M321.683,22.226 L321.683,30.576 C321.683,31.409 322.311,31.822 323.567,31.822 L329.547,31.822 C330.808,31.822 331.435,31.417 331.435,30.606 L331.435,22.226 L333.564,22.226 L333.564,30.606 C333.564,32.528 332.226,33.487 329.547,33.487 L323.567,33.487 C320.893,33.487 319.553,32.515 319.553,30.576 L319.553,22.226 L321.683,22.226 Z M347.492,22.226 L347.492,23.89 L338.039,23.89 L338.039,26.704 L347.014,26.704 L347.014,28.369 L338.039,28.369 L338.039,31.822 L347.492,31.822 L347.492,33.487 L335.913,33.487 L335.913,22.226 L347.492,22.226 Z M394.654,22.226 L394.654,23.89 L385.203,23.89 L385.203,26.704 L394.172,26.704 L394.172,28.369 L385.203,28.369 L385.203,31.822 L394.654,31.822 L394.654,33.487 L383.075,33.487 L383.075,22.226 L394.654,22.226 Z M410.092,22.226 L410.092,23.89 L400.801,23.89 C399.54,23.89 398.911,24.146 398.911,24.66 L398.911,25.89 C398.911,26.403 399.54,26.655 400.801,26.655 L406.784,26.655 C409.456,26.655 410.795,27.467 410.795,29.089 L410.795,31.089 C410.795,32.686 409.456,33.487 406.784,33.487 L397.171,33.487 L397.171,31.822 L406.784,31.822 C408.037,31.822 408.669,31.577 408.669,31.089 L408.669,29.089 C408.669,28.577 408.037,28.321 406.784,28.321 L400.801,28.321 C398.122,28.321 396.783,27.509 396.783,25.89 L396.783,24.66 C396.783,23.036 398.122,22.226 400.801,22.226 L410.092,22.226 Z M415.141,22.226 L415.141,30.576 C415.141,31.409 415.77,31.822 417.024,31.822 L423.008,31.822 C424.269,31.822 424.896,31.417 424.896,30.606 L424.896,22.226 L427.023,22.226 L427.023,30.606 C427.023,32.528 425.685,33.487 423.008,33.487 L417.024,33.487 C414.354,33.487 413.014,32.515 413.014,30.576 L413.014,22.226 L415.141,22.226 Z M431.331,22.226 L431.331,31.822 L440.461,31.822 L440.461,33.487 L429.202,33.487 L429.202,22.226 L431.331,22.226 Z M453.318,22.226 L453.318,23.89 L447.576,23.89 L447.576,33.487 L445.45,33.487 L445.45,23.89 L439.548,23.89 L439.548,22.226 L453.318,22.226 Z M468.482,22.226 L468.482,23.89 L459.191,23.89 C457.934,23.89 457.305,24.146 457.305,24.66 L457.305,25.89 C457.305,26.403 457.934,26.655 459.191,26.655 L465.173,26.655 C467.851,26.655 469.188,27.467 469.188,29.089 L469.188,31.089 C469.188,32.686 467.851,33.487 465.173,33.487 L455.562,33.487 L455.562,31.822 L465.173,31.822 C466.433,31.822 467.06,31.577 467.06,31.089 L467.06,29.089 C467.06,28.577 466.433,28.321 465.173,28.321 L459.191,28.321 C456.518,28.321 455.179,27.509 455.179,25.89 L455.179,24.66 C455.179,23.036 456.518,22.226 459.191,22.226 L468.482,22.226 Z M222.387,22.222 L222.387,26.701 L231.6,26.701 L231.6,22.222 L233.727,22.222 L233.727,33.483 L231.6,33.483 L231.6,28.365 L222.387,28.365 L222.387,33.483 L220.261,33.483 L220.261,22.222 L222.387,22.222 Z M249.374,22.222 C252.052,22.222 253.392,23.035 253.392,24.656 L253.392,26.894 C253.392,28.513 252.052,29.324 249.374,29.324 L242.752,29.324 L242.752,33.483 L240.626,33.483 L240.626,22.222 L249.374,22.222 Z M13.769,22.222 L13.769,23.887 L8.026,23.887 L8.026,33.483 L5.898,33.483 L5.898,23.887 L0,23.887 L0,22.222 L13.769,22.222 Z M76.452,22.222 L76.452,23.887 L70.71,23.887 L70.71,33.483 L68.58,33.483 L68.58,23.887 L62.684,23.887 L62.684,22.222 L76.452,22.222 Z M60.436,22.222 L60.436,23.887 L51.144,23.887 C49.884,23.887 49.257,24.144 49.257,24.656 L49.257,25.886 C49.257,26.399 49.884,26.653 51.144,26.653 L57.128,26.653 C59.799,26.653 61.139,27.463 61.139,29.086 L61.139,31.085 C61.139,32.684 59.799,33.483 57.128,33.483 L47.514,33.483 L47.514,31.819 L57.128,31.819 C58.382,31.819 59.012,31.575 59.012,31.085 L59.012,29.086 C59.012,28.573 58.382,28.317 57.128,28.317 L51.144,28.317 C48.467,28.317 47.128,27.506 47.128,25.886 L47.128,24.656 C47.128,23.035 48.467,22.222 51.144,22.222 L60.436,22.222 Z M33.021,22.222 L33.021,30.573 C33.021,31.406 33.651,31.819 34.908,31.819 L40.892,31.819 C42.149,31.819 42.78,31.414 42.78,30.603 L42.78,22.222 L44.906,22.222 L44.906,30.603 C44.906,32.524 43.566,33.483 40.892,33.483 L34.908,33.483 C32.233,33.483 30.895,32.512 30.895,30.573 L30.895,22.222 L33.021,22.222 Z M217.324,22.222 L217.324,23.887 L208.029,23.887 C206.772,23.887 206.142,24.144 206.142,24.656 L206.142,25.886 C206.142,26.399 206.772,26.653 208.029,26.653 L214.013,26.653 C216.688,26.653 218.027,27.463 218.027,29.086 L218.027,31.085 C218.027,32.684 216.688,33.483 214.013,33.483 L204.399,33.483 L204.399,31.819 L214.013,31.819 C215.27,31.819 215.901,31.575 215.901,31.085 L215.901,29.086 C215.901,28.573 215.27,28.317 214.013,28.317 L208.029,28.317 C205.354,28.317 204.016,27.506 204.016,25.886 L204.016,24.656 C204.016,23.035 205.354,22.222 208.029,22.222 L217.324,22.222 Z M197.831,22.222 C200.506,22.222 201.845,23.035 201.845,24.656 L201.845,26.031 C201.845,27.385 200.916,28.172 199.062,28.399 L201.732,33.483 L199.46,33.483 L196.824,28.461 L191.049,28.461 L191.049,33.483 L188.923,33.483 L188.923,22.222 L197.831,22.222 Z M186.688,22.222 L186.688,23.887 L177.234,23.887 L177.234,26.701 L186.208,26.701 L186.208,28.365 L177.234,28.365 L177.234,31.819 L186.688,31.819 L186.688,33.483 L175.108,33.483 L175.108,22.222 L186.688,22.222 Z M159.505,22.222 L170.714,30.859 L170.714,22.222 L172.732,22.222 L172.732,33.483 L171.053,33.483 L159.84,24.91 L159.84,33.483 L157.826,33.483 L157.826,22.222 L159.505,22.222 Z M105.414,22.222 C108.092,22.222 109.431,23.035 109.431,24.656 L109.431,26.894 C109.431,28.513 108.092,29.324 105.414,29.324 L98.792,29.324 L98.792,33.483 L96.666,33.483 L96.666,22.222 L105.414,22.222 Z M24.637,22.222 C27.315,22.222 28.654,23.035 28.654,24.656 L28.654,26.031 C28.654,27.385 27.726,28.172 25.867,28.399 L28.54,33.483 L26.269,33.483 L23.63,28.461 L17.858,28.461 L17.858,33.483 L15.729,33.483 L15.729,22.222 L24.637,22.222 Z M155.865,22.222 L155.865,23.887 L150.123,23.887 L150.123,33.483 L147.995,33.483 L147.995,23.887 L142.096,23.887 L142.096,22.222 L155.865,22.222 Z M136.21,22.222 C138.888,22.222 140.226,23.035 140.226,24.656 L140.226,26.031 C140.226,27.385 139.298,28.172 137.439,28.399 L140.112,33.483 L137.841,33.483 L135.203,28.461 L129.431,28.461 L129.431,33.483 L127.301,33.483 L127.301,22.222 L136.21,22.222 Z M118.115,22.222 L125.552,33.483 L123.249,33.483 L117.347,24.288 L111.349,33.483 L109.078,33.483 L116.563,22.222 L118.115,22.222 Z M238.229,22.222 L238.229,33.427 L236.1,33.427 L236.1,22.222 L238.229,22.222 Z M85.354,25.204 L85.354,27.122 L87.001,26.447 L87.513,27.856 L85.795,28.532 L86.799,29.904 L85.668,30.835 L84.624,29.445 L83.564,30.871 L82.41,29.976 L83.49,28.532 L81.717,27.856 L82.194,26.447 L83.912,27.122 L83.912,25.204 L85.354,25.204 Z M358.716,25.202 L358.716,27.12 L360.358,26.445 L360.868,27.853 L359.15,28.529 L360.155,29.9 L359.021,30.831 L357.981,29.443 L356.924,30.869 L355.771,29.973 L356.848,28.529 L355.075,27.853 L355.552,26.445 L357.266,27.12 L357.266,25.202 L358.716,25.202 Z M266.104,25.202 L266.104,27.12 L267.749,26.445 L268.258,27.853 L266.542,28.529 L267.547,29.9 L266.412,30.831 L265.371,29.443 L264.313,30.869 L263.162,29.973 L264.238,28.529 L262.465,27.853 L262.941,26.445 L264.657,27.12 L264.657,25.202 L266.104,25.202 Z M249.374,23.887 L242.752,23.887 L242.752,27.663 L249.374,27.663 C250.635,27.663 251.262,27.406 251.262,26.894 L251.262,24.656 C251.262,24.144 250.635,23.887 249.374,23.887 Z M105.414,23.887 L98.792,23.887 L98.792,27.663 L105.414,27.663 C106.675,27.663 107.301,27.406 107.301,26.894 L107.301,24.656 C107.301,24.144 106.675,23.887 105.414,23.887 Z M376.802,23.89 L370.02,23.89 L370.02,26.8 L376.802,26.8 C378.061,26.8 378.689,26.543 378.689,26.035 L378.689,24.66 C378.689,24.146 378.061,23.89 376.802,23.89 Z M197.831,23.887 L191.049,23.887 L191.049,26.797 L197.831,26.797 C199.089,26.797 199.719,26.541 199.719,26.031 L199.719,24.656 C199.719,24.144 199.089,23.887 197.831,23.887 Z M136.21,23.887 L129.431,23.887 L129.431,26.797 L136.21,26.797 C137.47,26.797 138.098,26.541 138.098,26.031 L138.098,24.656 C138.098,24.144 137.47,23.887 136.21,23.887 Z M24.637,23.887 L17.858,23.887 L17.858,26.797 L24.637,26.797 C25.898,26.797 26.525,26.541 26.525,26.031 L26.525,24.656 C26.525,24.144 25.898,23.887 24.637,23.887 Z M0.732,11.933 L2.985,11.933 L2.985,0 L0.732,0 L0.732,11.933 Z M7.666,2.846 L7.666,11.933 L5.53,11.933 L5.53,0 L7.31,0 L19.191,9.153 L19.191,0 L21.326,0 L21.326,11.933 L19.547,11.933 L7.666,2.846 M25.982,2.846 L25.982,11.933 L23.848,11.933 L23.848,0 L25.627,0 L37.508,9.153 L37.508,0 L39.644,0 L39.644,11.933 L37.864,11.933 L25.982,2.846 M53.214,10.169 C54.546,10.169 55.216,9.91 55.216,9.391 L55.216,2.578 C55.216,2.036 54.546,1.764 53.214,1.764 L46.368,1.764 C45.035,1.764 44.365,2.036 44.365,2.578 L44.365,9.358 C44.365,9.9 45.035,10.169 46.368,10.169 L53.214,10.169 Z M42.112,2.578 C42.112,0.861 43.529,0 46.368,0 L53.214,0 C56.048,0 57.469,0.861 57.469,2.578 L57.469,9.391 C57.469,11.086 56.048,11.933 53.214,11.933 L46.368,11.933 C43.529,11.933 42.112,11.074 42.112,9.358 L42.112,2.578 L42.112,2.578 Z M61.265,0 L67.604,9.747 L73.874,0 L76.265,0 L68.382,11.933 L66.739,11.933 L58.804,0 L61.265,0 Z M83.714,0 L91.597,11.933 L89.153,11.933 L82.899,2.187 L76.542,11.933 L74.136,11.933 L82.069,0 L83.714,0 Z M104.838,0 L104.838,1.764 L98.753,1.764 L98.753,11.933 L96.5,11.933 L96.5,1.764 L90.245,1.764 L90.245,0 L104.838,0 Z M106.916,11.933 L109.171,11.933 L109.171,0 L106.916,0 L106.916,11.933 Z M120.638,11.933 L118.993,11.933 L111.06,0 L113.521,0 L119.858,9.747 L126.128,0 L128.52,0 L120.638,11.933 M132.627,6.508 L132.627,10.169 L142.645,10.169 L142.645,11.933 L130.374,11.933 L130.374,0 L142.645,0 L142.645,1.764 L132.627,1.764 L132.627,4.746 L142.138,4.746 L142.138,6.508 L132.627,6.508 M163.238,10.169 C165.023,10.169 165.917,9.684 165.917,8.713 L165.917,3.254 C165.917,2.262 165.023,1.764 163.238,1.764 L155.068,1.764 L155.068,10.169 L163.238,10.169 Z M152.813,0 L163.238,0 C166.525,0 168.169,1.086 168.169,3.254 L168.169,8.713 C168.169,10.859 166.525,11.933 163.238,11.933 L152.813,11.933 L152.813,0 L152.813,0 Z M172.85,6.508 L172.85,10.169 L182.864,10.169 L182.864,11.933 L170.595,11.933 L170.595,0 L182.864,0 L182.864,1.764 L172.85,1.764 L172.85,4.746 L182.354,4.746 L182.354,6.508 L172.85,6.508 M195.717,4.695 C198.555,4.695 199.972,5.555 199.972,7.271 L199.972,9.391 C199.972,11.086 198.555,11.933 195.717,11.933 L185.53,11.933 L185.53,10.169 L195.717,10.169 C197.05,10.169 197.716,9.91 197.716,9.391 L197.716,7.271 C197.716,6.732 197.05,6.46 195.717,6.46 L189.378,6.46 C186.541,6.46 185.123,5.6 185.123,3.882 L185.123,2.578 C185.123,0.861 186.541,0 189.378,0 L199.224,0 L199.224,1.764 L189.378,1.764 C188.043,1.764 187.379,2.036 187.379,2.578 L187.379,3.882 C187.379,4.424 188.043,4.695 189.378,4.695 L195.717,4.695 M202.339,11.933 L204.592,11.933 L204.592,0 L202.339,0 L202.339,11.933 Z M218.624,5.426 L220.877,5.426 L220.877,9.391 C220.877,11.086 219.458,11.933 216.625,11.933 L211.353,11.933 C208.515,11.933 207.098,11.074 207.098,9.358 L207.098,2.578 C207.098,0.861 208.515,0 211.353,0 L220.688,0 L220.688,1.764 L211.353,1.764 C210.021,1.764 209.351,2.036 209.351,2.578 L209.351,9.358 C209.351,9.9 210.021,10.169 211.353,10.169 L216.625,10.169 C217.957,10.169 218.624,9.91 218.624,9.391 L218.624,5.426 M225.412,2.846 L225.412,11.933 L223.276,11.933 L223.276,0 L225.056,0 L236.938,9.153 L236.938,0 L239.072,0 L239.072,11.933 L237.293,11.933 L225.412,2.846 M265.51,11.933 L263.815,11.933 L259.681,2.781 L255.46,11.933 L253.815,11.933 L248.325,0 L250.495,0 L254.646,9.153 L258.831,0 L260.511,0 L264.645,9.153 L268.831,0 L271.021,0 L265.51,11.933 M272.871,11.933 L275.128,11.933 L275.128,0 L272.871,0 L272.871,11.933 Z M277.232,0 L291.828,0 L291.828,1.764 L285.742,1.764 L285.742,11.933 L283.487,11.933 L283.487,1.764 L277.232,1.764 L277.232,0 M305.923,6.508 L296.162,6.508 L296.162,11.933 L293.909,11.933 L293.909,0 L296.162,0 L296.162,4.746 L305.923,4.746 L305.923,0 L308.179,0 L308.179,11.933 L305.923,11.933 L305.923,6.508 M325.091,7.086 L317.431,0 L320.313,0 L326.212,5.459 L332.107,0 L334.958,0 L327.346,7.086 L327.346,11.933 L325.091,11.933 L325.091,7.086 M347.347,10.169 C348.679,10.169 349.341,9.91 349.341,9.391 L349.341,2.578 C349.341,2.036 348.679,1.764 347.347,1.764 L340.494,1.764 C339.161,1.764 338.497,2.036 338.497,2.578 L338.497,9.358 C338.497,9.9 339.161,10.169 340.494,10.169 L347.347,10.169 Z M336.242,2.578 C336.242,0.861 337.659,0 340.494,0 L347.347,0 C350.18,0 351.599,0.861 351.599,2.578 L351.599,9.391 C351.599,11.086 350.18,11.933 347.347,11.933 L340.494,11.933 C337.659,11.933 336.242,11.074 336.242,9.358 L336.242,2.578 L336.242,2.578 Z M364.558,10.169 C365.893,10.169 366.557,9.742 366.557,8.881 L366.557,0 L368.81,0 L368.81,8.881 C368.81,10.916 367.394,11.933 364.558,11.933 L358.221,11.933 C355.384,11.933 353.966,10.905 353.966,8.848 L353.966,0 L356.216,0 L356.216,8.848 C356.216,9.729 356.886,10.169 358.221,10.169 L364.558,10.169 M379.137,11.933 L381.389,11.933 L381.389,0 L379.137,0 L379.137,11.933 Z M386.066,2.846 L386.066,11.933 L383.932,11.933 L383.932,0 L385.711,0 L397.592,9.153 L397.592,0 L399.727,0 L399.727,11.933 L397.947,11.933 L386.066,2.846 M410.085,0 L412.187,0 L419.271,9.747 L426.323,0 L428.255,0 L428.255,11.933 L426.084,11.933 L426.084,3.647 L420.101,11.933 L418.254,11.933 L412.254,3.661 L412.254,11.933 L410.085,11.933 L410.085,0 M430.762,11.933 L433.015,11.933 L433.015,0 L430.762,0 L430.762,11.933 Z M437.694,2.846 L437.694,11.933 L435.559,11.933 L435.559,0 L437.338,0 L449.219,9.153 L449.219,0 L451.354,0 L451.354,11.933 L449.575,11.933 L437.694,2.846 M464.297,10.169 C466.084,10.169 466.976,9.684 466.976,8.713 L466.976,3.254 C466.976,2.262 466.084,1.764 464.297,1.764 L456.13,1.764 L456.13,10.169 L464.297,10.169 Z M453.875,0 L464.297,0 C467.586,0 469.23,1.086 469.23,3.254 L469.23,8.713 C469.23,10.859 467.586,11.933 464.297,11.933 L453.875,11.933 L453.875,0 L453.875,0 Z" id="Combined-Shape"></path>
            </g>
        </g>
    </g>
</svg>