<?xml version="1.0" encoding="UTF-8"?>
<svg width="236px" height="63px" viewBox="0 0 236 63" version="1.1" xmlns="http://www.w3.org/2000/svg" xmlns:xlink="http://www.w3.org/1999/xlink">
    <title>lda-logo</title>
    <g id="Page-1" stroke="none" stroke-width="1" fill="none" fill-rule="evenodd">
        <g id="lda-logo" transform="translate(0.824700, 0.000000)" fill-rule="nonzero">
            <path d="M126.1753,17.3804 L127.7822,17.3804 L127.7822,24.6304 L134.6831,24.6304 L134.6831,25.8877 L126.1753,25.8877 L126.1753,17.3804 Z M137.8482,22.022 L137.8482,24.6304 L144.9888,24.6304 L144.9888,25.8877 L136.2393,25.8877 L136.2393,17.3804 L144.9888,17.3804 L144.9888,18.6387 L137.8482,18.6387 L137.8482,20.7661 L144.6255,20.7661 L144.6255,22.022 L137.8482,22.022 Z M158.6602,25.8877 L156.9224,25.8877 L152.4653,18.9385 L147.9307,25.8877 L146.2158,25.8877 L151.8701,17.3804 L153.0425,17.3804 L158.6602,25.8877 Z M167.3774,24.6304 C168.6523,24.6304 169.2896,24.2852 169.2896,23.5942 L169.2896,19.7012 C169.2896,18.9941 168.6523,18.6387 167.3774,18.6387 L161.5557,18.6387 L161.5557,24.6304 L167.3774,24.6304 Z M159.9487,17.3804 L167.3774,17.3804 C169.7246,17.3804 170.896,18.1553 170.896,19.7012 L170.896,23.5942 C170.896,25.1226 169.7246,25.8877 167.3774,25.8877 L159.9487,25.8877 L159.9487,17.3804 Z M174.1914,22.022 L174.1914,24.6304 L181.3315,24.6304 L181.3315,25.8877 L172.583,25.8877 L172.583,17.3804 L181.3315,17.3804 L181.3315,18.6387 L174.1914,18.6387 L174.1914,20.7661 L180.9697,20.7661 L180.9697,22.022 L174.1914,22.022 Z M184.5894,18.6387 L184.5894,20.8369 L189.7124,20.8369 C190.6636,20.8369 191.1382,20.6465 191.1382,20.2583 L191.1382,19.2178 C191.1382,18.8306 190.6636,18.6387 189.7124,18.6387 L184.5894,18.6387 Z M182.9829,25.8877 L182.9829,17.3804 L189.7124,17.3804 C191.7339,17.3804 192.7451,17.9951 192.7451,19.2178 L192.7451,20.2583 C192.7451,21.2817 192.0444,21.876 190.6411,22.0459 L192.6602,25.8877 L190.9448,25.8877 L188.9512,22.0952 L184.5894,22.0952 L184.5894,25.8877 L182.9829,25.8877 Z M201.9009,20.728 C203.9199,20.728 204.9326,21.3403 204.9326,22.5649 L204.9326,24.0781 C204.9326,25.2837 203.9199,25.8877 201.9009,25.8877 L194.6406,25.8877 L194.6406,24.6304 L201.9009,24.6304 C202.8521,24.6304 203.3262,24.4468 203.3262,24.0781 L203.3262,22.5649 C203.3262,22.1777 202.8521,21.9863 201.9009,21.9863 L197.3818,21.9863 C195.3594,21.9863 194.3477,21.3735 194.3477,20.1484 L194.3477,19.2178 C194.3477,17.9951 195.3594,17.3804 197.3818,17.3804 L204.4009,17.3804 L204.4009,18.6387 L197.3818,18.6387 C196.4316,18.6387 195.9541,18.8306 195.9541,19.2178 L195.9541,20.1484 C195.9541,20.5356 196.4316,20.728 197.3818,20.728 L201.9009,20.728 Z M215.1484,22.022 L208.189,22.022 L208.189,25.8877 L206.5816,25.8877 L206.5816,17.3804 L208.189,17.3804 L208.189,20.7661 L215.1484,20.7661 L215.1484,17.3804 L216.7568,17.3804 L216.7568,25.8877 L215.1484,25.8877 L215.1484,22.022 Z M218.5068,25.8877 L220.1142,25.8877 L220.1142,17.3804 L218.5068,17.3804 L218.5068,25.8877 Z M223.4971,18.6387 L223.4971,21.4917 L228.4993,21.4917 C229.4513,21.4917 229.9253,21.2969 229.9253,20.9092 L229.9253,19.2178 C229.9253,18.8306 229.4513,18.6387 228.4993,18.6387 L223.4971,18.6387 Z M221.8892,25.8877 L221.8892,17.3804 L228.4993,17.3804 C230.5223,17.3804 231.5333,17.9951 231.5333,19.2178 L231.5333,20.9092 C231.5333,22.1338 230.5223,22.7466 228.4993,22.7466 L223.4971,22.7466 L223.4971,25.8877 L221.8892,25.8877 Z" id="Combined-Shape" fill="#2E478A"></path>
            <polygon id="Fill-1" fill="#2E478A" points="8.6426 55.8965 8.6426 16.896 0 16.896 0 62.6577 21.1883 62.6577 21.1883 55.8965"></polygon>
            <path d="M52.4883,16.896 L12.5142,16.896 L12.5142,52.021 L21.1583,52.021 L21.1583,23.6572 L52.4883,23.6572 C59.3333,23.6572 62.7573,25.5635 62.7573,29.376 L62.7573,50.3066 C62.7573,54.0361 59.3333,55.8965 52.4883,55.8965 L27.0873,55.8965 L27.0873,55.9058 L25.0633,55.9058 L25.0633,62.6577 L52.4883,62.6577 C65.0993,62.6577 71.4033,58.543 71.4033,50.3066 L71.4033,29.376 C71.4033,21.0566 65.0993,16.896 52.4883,16.896 Z" id="Fill-2" fill="#4276A5"></path>
            <polygon id="Fill-3" fill="#2E478A" points="92.4513 16.896 86.1433 16.896 74.6023 34.2559 74.6023 47.8628 89.3303 25.2827 113.3133 62.6577 122.6743 62.6577"></polygon>
            <path d="M133.3543,42.6304 C134.6283,42.6304 135.2653,42.2852 135.2653,41.5942 L135.2653,37.7012 C135.2653,36.9941 134.6283,36.6387 133.3543,36.6387 L127.5313,36.6387 L127.5313,42.6304 L133.3543,42.6304 Z M125.9253,35.3804 L133.3543,35.3804 C135.6983,35.3804 136.8703,36.1553 136.8703,37.7012 L136.8703,41.5942 C136.8703,43.1226 135.6983,43.8877 133.3543,43.8877 L125.9253,43.8877 L125.9253,35.3804 Z M140.1683,40.022 L140.1683,42.6304 L147.3073,42.6304 L147.3073,43.8877 L138.5613,43.8877 L138.5613,35.3804 L147.3073,35.3804 L147.3073,36.6387 L140.1683,36.6387 L140.1683,38.7661 L146.9463,38.7661 L146.9463,40.022 L140.1683,40.022 Z M156.4313,38.728 C158.4523,38.728 159.4653,39.3403 159.4653,40.5649 L159.4653,42.0781 C159.4653,43.2837 158.4523,43.8877 156.4313,43.8877 L149.1693,43.8877 L149.1693,42.6304 L156.4313,42.6304 C157.3823,42.6304 157.8583,42.4468 157.8583,42.0781 L157.8583,40.5649 C157.8583,40.1777 157.3823,39.9863 156.4313,39.9863 L151.9133,39.9863 C149.8903,39.9863 148.8783,39.3735 148.8783,38.1484 L148.8783,37.2178 C148.8783,35.9951 149.8903,35.3804 151.9133,35.3804 L158.9333,35.3804 L158.9333,36.6387 L151.9133,36.6387 C150.9623,36.6387 150.4853,36.8306 150.4853,37.2178 L150.4853,38.1484 C150.4853,38.5356 150.9623,38.728 151.9133,38.728 L156.4313,38.728 Z M161.1133,43.8877 L162.7217,43.8877 L162.7217,35.3804 L161.1133,35.3804 L161.1133,43.8877 Z M172.6823,39.2471 L174.2913,39.2471 L174.2913,42.0781 C174.2913,43.2837 173.2783,43.8877 171.2573,43.8877 L167.5013,43.8877 C165.4773,43.8877 164.4663,43.2764 164.4663,42.0513 L164.4663,37.2178 C164.4663,35.9951 165.4773,35.3804 167.5013,35.3804 L174.1583,35.3804 L174.1583,36.6387 L167.5013,36.6387 C166.5503,36.6387 166.0723,36.8306 166.0723,37.2178 L166.0723,42.0513 C166.0723,42.4395 166.5503,42.6304 167.5013,42.6304 L171.2573,42.6304 C172.2103,42.6304 172.6823,42.4468 172.6823,42.0781 L172.6823,39.2471 Z M177.4813,37.4126 L177.4813,43.8877 L175.9603,43.8877 L175.9603,35.3804 L177.2263,35.3804 L185.6963,41.9087 L185.6963,35.3804 L187.2213,35.3804 L187.2213,43.8877 L185.9523,43.8877 L177.4813,37.4126 Z" id="Combined-Shape" fill="#4276A5"></path>
            <g id="Group" transform="translate(65.043300, 0.000000)">
                <path d="M9.887,0 C4.434,0 0,4.4351 0,9.8857 C0,15.3359 4.434,19.7705 9.887,19.7705 C15.336,19.7705 19.775,15.3359 19.775,9.8857 C19.775,4.4351 15.336,0 9.887,0 Z" id="Fill-4" fill="#4276A5"></path>
                <path d="M8.62,8.3818 C9.445,8.0508 10.023,7.25 10.023,6.3091 C10.023,5.0767 9.019,4.0762 7.79,4.0762 C6.555,4.0762 5.557,5.0767 5.557,6.3091 C5.557,6.7588 5.815,7.436 5.246,7.1411 C4.992,7.0098 3.625,6.2998 2.188,5.5493 C1.458,6.8311 1.044,8.3096 1.044,9.8857 C1.044,14.7686 5,18.727 9.887,18.727 L9.887,15.6987 C9.884,15.543 9.88,15.4014 9.875,15.2861 C9.845,14.647 9.39,15.2095 8.998,15.4326 C7.93,16.0508 6.562,15.6851 5.949,14.6167 C5.333,13.5483 5.691,12.1841 6.767,11.563 C7.578,11.0947 8.568,11.1963 9.257,11.7441 C9.479,11.9131 9.832,12.1738 9.862,11.561 C9.887,10.9512 9.857,9.9399 9.857,9.9399 L9.887,9.9219 L9.887,9.8013 C9.887,9.8013 8.992,9.3208 8.479,8.9912 C7.958,8.6655 8.368,8.4873 8.62,8.3818 Z" id="Fill-5" fill="#4276A5"></path>
                <path d="M14.595,7.2222 C14.861,7.0464 16.289,6.3291 17.652,5.6572 C16.149,2.9067 13.236,1.0425 9.887,1.0425 C6.568,1.0425 3.684,2.8691 2.168,5.5703 L4.862,6.9619 C4.997,7.0356 5.126,7.1055 5.226,7.1553 C5.792,7.4507 5.539,6.772 5.539,6.3242 C5.539,5.0928 6.535,4.0913 7.768,4.0913 C9.002,4.0913 10.004,5.0928 10.004,6.3232 C10.004,7.2656 9.423,8.0703 8.601,8.3965 C8.345,8.499 7.939,8.6802 8.457,9.0088 C8.973,9.3335 9.865,9.8144 9.865,9.8144 L9.865,9.8481 L9.968,9.9092 C9.968,9.9092 10.833,9.375 11.369,9.0942 C11.922,8.8081 11.871,9.2485 11.833,9.521 C11.705,10.4014 12.112,11.3057 12.926,11.7744 C13.992,12.3906 15.361,12.0269 15.98,10.957 C16.593,9.8906 16.224,8.5215 15.16,7.9062 C14.769,7.6841 14.05,7.5674 14.595,7.2222 Z" id="Fill-6" fill="#2E478A"></path>
                <path d="M14.591,7.2075 C14.048,7.5537 14.762,7.6724 15.152,7.894 C16.222,8.5161 16.585,9.8794 15.967,10.9478 C15.35,12.0132 13.99,12.3804 12.922,11.7637 C12.104,11.292 11.702,10.3896 11.823,9.5117 C11.865,9.2407 11.91,8.7969 11.363,9.084 C10.825,9.3648 9.968,9.8984 9.968,9.8984 L9.937,9.8823 L9.832,9.9448 C9.832,9.9448 9.862,10.9536 9.832,11.5645 C9.808,12.1777 9.456,11.9175 9.233,11.749 C8.537,11.1987 7.553,11.0996 6.737,11.5689 C5.671,12.1841 5.302,13.5518 5.921,14.6187 C6.535,15.689 7.905,16.0557 8.973,15.438 C9.362,15.2109 9.819,14.6504 9.847,15.291 C9.865,15.6221 9.865,17.2358 9.865,18.727 L9.887,18.727 C14.769,18.727 18.729,14.7686 18.729,9.8857 C18.729,8.3535 18.339,6.9165 17.654,5.6606 L14.941,6.9932 C14.805,7.0742 14.682,7.1475 14.591,7.2075 Z" id="Fill-7" fill="#FFFFFE"></path>
            </g>
            <path d="M137.9663,62.7073 L136.2273,62.7073 L131.7693,55.7581 L127.2373,62.7073 L125.5213,62.7073 L131.1753,54.2 L132.3483,54.2 L137.9663,62.7073 Z M139.1293,54.2 L140.7363,54.2 L140.7363,61.45 L147.6343,61.45 L147.6343,62.7073 L139.1293,62.7073 L139.1293,54.2 Z M158.6643,61.45 L158.6643,62.7073 L152.1753,62.7073 C150.1553,62.7073 149.1453,62.0569 149.1453,60.7488 L149.1453,56.1585 C149.1453,54.8528 150.1553,54.2 152.1753,54.2 L158.6643,54.2 L158.6643,55.4583 L152.1753,55.4583 C151.2253,55.4583 150.7533,55.6936 150.7533,56.1585 L150.7533,60.7488 C150.7533,61.218 151.2253,61.45 152.1753,61.45 L158.6643,61.45 Z M168.8823,58.8416 L161.9223,58.8416 L161.9223,62.7073 L160.3163,62.7073 L160.3163,54.2 L161.9223,54.2 L161.9223,57.5857 L168.8823,57.5857 L168.8823,54.2 L170.4883,54.2 L170.4883,62.7073 L168.8823,62.7073 L168.8823,58.8416 Z M173.8533,58.8416 L173.8533,61.45 L180.9923,61.45 L180.9923,62.7073 L172.2453,62.7073 L172.2453,54.2 L180.9923,54.2 L180.9923,55.4583 L173.8533,55.4583 L173.8533,57.5857 L180.6273,57.5857 L180.6273,58.8416 L173.8533,58.8416 Z M182.6423,54.2 L184.1403,54.2 L189.1913,61.1497 L194.2183,54.2 L195.5953,54.2 L195.5953,62.7073 L194.0483,62.7073 L194.0483,56.7991 L189.7853,62.7073 L188.4663,62.7073 L184.1883,56.8118 L184.1883,62.7073 L182.6423,62.7073 L182.6423,54.2 Z M197.3423,62.7073 L198.9483,62.7073 L198.9483,54.2 L197.3423,54.2 L197.3423,62.7073 Z M208.1743,57.5476 C210.1953,57.5476 211.2083,58.1599 211.2083,59.3845 L211.2083,60.8977 C211.2083,62.1033 210.1953,62.7073 208.1743,62.7073 L200.9133,62.7073 L200.9133,61.45 L208.1743,61.45 C209.1243,61.45 209.6013,61.2664 209.6013,60.8977 L209.6013,59.3845 C209.6013,58.9973 209.1243,58.8059 208.1743,58.8059 L203.6543,58.8059 C201.6353,58.8059 200.6223,58.1931 200.6223,56.968 L200.6223,56.0374 C200.6223,54.8147 201.6353,54.2 203.6543,54.2 L210.6763,54.2 L210.6763,55.4583 L203.6543,55.4583 C202.7073,55.4583 202.2293,55.6502 202.2293,56.0374 L202.2293,56.968 C202.2293,57.3552 202.7073,57.5476 203.6543,57.5476 L208.1743,57.5476 Z M212.3253,54.2 L222.7283,54.2 L222.7283,55.4583 L218.3923,55.4583 L218.3923,62.7073 L216.7843,62.7073 L216.7843,55.4583 L212.3253,55.4583 L212.3253,54.2 Z M231.6503,57.5476 C233.6743,57.5476 234.6843,58.1599 234.6843,59.3845 L234.6843,60.8977 C234.6843,62.1033 233.6743,62.7073 231.6503,62.7073 L224.3893,62.7073 L224.3893,61.45 L231.6503,61.45 C232.6023,61.45 233.0763,61.2664 233.0763,60.8977 L233.0763,59.3845 C233.0763,58.9973 232.6023,58.8059 231.6503,58.8059 L227.1313,58.8059 C225.1113,58.8059 224.1013,58.1931 224.1013,56.968 L224.1013,56.0374 C224.1013,54.8147 225.1113,54.2 227.1313,54.2 L234.1533,54.2 L234.1533,55.4583 L227.1313,55.4583 C226.1813,55.4583 225.7083,55.6502 225.7083,56.0374 L225.7083,56.968 C225.7083,57.3552 226.1813,57.5476 227.1313,57.5476 L231.6503,57.5476 Z" id="Combined-Shape" fill="#2E478A"></path>
        </g>
    </g>
</svg>