<?xml version="1.0" encoding="UTF-8"?>
<svg width="283px" height="83px" viewBox="0 0 283 83" version="1.1" xmlns="http://www.w3.org/2000/svg" xmlns:xlink="http://www.w3.org/1999/xlink">
    <title>lda-logo</title>
    <g id="Mockups" stroke="none" stroke-width="1" fill="none" fill-rule="evenodd">
        <g id="Home-Page" transform="translate(-318.000000, -766.000000)" fill="#FFFFFF" fill-rule="nonzero">
            <g id="lda-logo" transform="translate(318.000000, 766.000000)">
                <path d="M280.397,82.4541 L280.397,82.0034 L282.422,82.0034 L282.422,80.0747 L282.775,80.0747 L282.775,82.4541 L280.397,82.4541 Z M280.397,79.666 L280.397,79.2163 L282.422,79.2163 L282.422,77.2886 L282.775,77.2886 L282.775,79.666 L280.397,79.666 Z M282.422,74.5024 L282.775,74.5024 L282.775,76.3144 C282.775,76.8794 282.595,77.1631 282.229,77.1631 L280.947,77.1631 C280.581,77.1631 280.397,76.8794 280.397,76.3144 L280.397,74.5024 L280.75,74.5024 L280.75,76.3144 C280.75,76.5806 280.812,76.7153 280.947,76.7153 L282.229,76.7153 C282.358,76.7153 282.422,76.5806 282.422,76.3144 L282.422,74.5024 Z M0,74.3804 L1.6069,74.3804 L1.6069,81.6304 L8.5078,81.6304 L8.5078,82.8877 L0,82.8877 L0,74.3804 Z M11.6729,79.022 L11.6729,81.6304 L18.8135,81.6304 L18.8135,82.8877 L10.064,82.8877 L10.064,74.3804 L18.8135,74.3804 L18.8135,75.6387 L11.6729,75.6387 L11.6729,77.7661 L18.4502,77.7661 L18.4502,79.022 L11.6729,79.022 Z M32.4849,82.8877 L30.7471,82.8877 L26.29,75.9385 L21.7554,82.8877 L20.0405,82.8877 L25.6948,74.3804 L26.8672,74.3804 L32.4849,82.8877 Z M41.2021,81.6304 C42.477,81.6304 43.1143,81.2852 43.1143,80.5942 L43.1143,76.7012 C43.1143,75.9941 42.477,75.6387 41.2021,75.6387 L35.3804,75.6387 L35.3804,81.6304 L41.2021,81.6304 Z M33.7734,74.3804 L41.2021,74.3804 C43.5493,74.3804 44.7207,75.1553 44.7207,76.7012 L44.7207,80.5942 C44.7207,82.1226 43.5493,82.8877 41.2021,82.8877 L33.7734,82.8877 L33.7734,74.3804 Z M48.0161,79.022 L48.0161,81.6304 L55.1562,81.6304 L55.1562,82.8877 L46.4077,82.8877 L46.4077,74.3804 L55.1562,74.3804 L55.1562,75.6387 L48.0161,75.6387 L48.0161,77.7661 L54.7944,77.7661 L54.7944,79.022 L48.0161,79.022 Z M58.4141,75.6387 L58.4141,77.8369 L63.5371,77.8369 C64.4883,77.8369 64.9629,77.6465 64.9629,77.2583 L64.9629,76.2178 C64.9629,75.8306 64.4883,75.6387 63.5371,75.6387 L58.4141,75.6387 Z M56.8076,82.8877 L56.8076,74.3804 L63.5371,74.3804 C65.5586,74.3804 66.5698,74.9951 66.5698,76.2178 L66.5698,77.2583 C66.5698,78.2817 65.8691,78.876 64.4658,79.0459 L66.4849,82.8877 L64.7695,82.8877 L62.7759,79.0952 L58.4141,79.0952 L58.4141,82.8877 L56.8076,82.8877 Z M75.7256,77.728 C77.7446,77.728 78.7573,78.3403 78.7573,79.5649 L78.7573,81.0781 C78.7573,82.2837 77.7446,82.8877 75.7256,82.8877 L68.4653,82.8877 L68.4653,81.6304 L75.7256,81.6304 C76.6768,81.6304 77.1509,81.4468 77.1509,81.0781 L77.1509,79.5649 C77.1509,79.1777 76.6768,78.9863 75.7256,78.9863 L71.2065,78.9863 C69.1841,78.9863 68.1724,78.3735 68.1724,77.1484 L68.1724,76.2178 C68.1724,74.9951 69.1841,74.3804 71.2065,74.3804 L78.2256,74.3804 L78.2256,75.6387 L71.2065,75.6387 C70.2563,75.6387 69.7788,75.8306 69.7788,76.2178 L69.7788,77.1484 C69.7788,77.5356 70.2563,77.728 71.2065,77.728 L75.7256,77.728 Z M88.9731,79.022 L82.0137,79.022 L82.0137,82.8877 L80.4063,82.8877 L80.4063,74.3804 L82.0137,74.3804 L82.0137,77.7661 L88.9731,77.7661 L88.9731,74.3804 L90.5815,74.3804 L90.5815,82.8877 L88.9731,82.8877 L88.9731,79.022 Z M92.3315,82.8877 L93.9389,82.8877 L93.9389,74.3804 L92.3315,74.3804 L92.3315,82.8877 Z M97.3218,75.6387 L97.3218,78.4917 L102.324,78.4917 C103.276,78.4917 103.75,78.2969 103.75,77.9092 L103.75,76.2178 C103.75,75.8306 103.276,75.6387 102.324,75.6387 L97.3218,75.6387 Z M95.7139,82.8877 L95.7139,74.3804 L102.324,74.3804 C104.347,74.3804 105.358,74.9951 105.358,76.2178 L105.358,77.9092 C105.358,79.1338 104.347,79.7466 102.324,79.7466 L97.3218,79.7466 L97.3218,82.8877 L95.7139,82.8877 Z" id="Combined-Shape"></path>
                <polygon id="Fill-1" points="95.4673 55.8965 95.4673 16.896 86.8247 16.896 86.8247 62.6577 108.013 62.6577 108.013 55.8965"></polygon>
                <path d="M139.313,16.896 L99.3389,16.896 L99.3389,52.021 L107.983,52.021 L107.983,23.6572 L139.313,23.6572 C146.158,23.6572 149.582,25.5635 149.582,29.376 L149.582,50.3066 C149.582,54.0361 146.158,55.8965 139.313,55.8965 L113.912,55.8965 L113.912,55.9058 L111.888,55.9058 L111.888,62.6577 L139.313,62.6577 C151.924,62.6577 158.228,58.543 158.228,50.3066 L158.228,29.376 C158.228,21.0566 151.924,16.896 139.313,16.896 Z" id="Fill-2"></path>
                <polygon id="Fill-3" points="179.276 16.896 172.968 16.896 161.427 34.2559 161.427 47.8628 176.155 25.2827 200.138 62.6577 209.499 62.6577"></polygon>
                <path d="M114.179,81.6304 C115.453,81.6304 116.09,81.2852 116.09,80.5942 L116.09,76.7012 C116.09,75.9941 115.453,75.6387 114.179,75.6387 L108.356,75.6387 L108.356,81.6304 L114.179,81.6304 Z M106.75,74.3804 L114.179,74.3804 C116.523,74.3804 117.695,75.1553 117.695,76.7012 L117.695,80.5942 C117.695,82.1226 116.523,82.8877 114.179,82.8877 L106.75,82.8877 L106.75,74.3804 Z M120.993,79.022 L120.993,81.6304 L128.132,81.6304 L128.132,82.8877 L119.386,82.8877 L119.386,74.3804 L128.132,74.3804 L128.132,75.6387 L120.993,75.6387 L120.993,77.7661 L127.771,77.7661 L127.771,79.022 L120.993,79.022 Z M137.256,77.728 C139.277,77.728 140.29,78.3403 140.29,79.5649 L140.29,81.0781 C140.29,82.2837 139.277,82.8877 137.256,82.8877 L129.994,82.8877 L129.994,81.6304 L137.256,81.6304 C138.207,81.6304 138.683,81.4468 138.683,81.0781 L138.683,79.5649 C138.683,79.1777 138.207,78.9863 137.256,78.9863 L132.738,78.9863 C130.715,78.9863 129.703,78.3735 129.703,77.1484 L129.703,76.2178 C129.703,74.9951 130.715,74.3804 132.738,74.3804 L139.758,74.3804 L139.758,75.6387 L132.738,75.6387 C131.787,75.6387 131.31,75.8306 131.31,76.2178 L131.31,77.1484 C131.31,77.5356 131.787,77.728 132.738,77.728 L137.256,77.728 Z M141.938,82.8877 L143.5464,82.8877 L143.5464,74.3804 L141.938,74.3804 L141.938,82.8877 Z M153.507,78.2471 L155.116,78.2471 L155.116,81.0781 C155.116,82.2837 154.103,82.8877 152.082,82.8877 L148.326,82.8877 C146.302,82.8877 145.291,82.2764 145.291,81.0513 L145.291,76.2178 C145.291,74.9951 146.302,74.3804 148.326,74.3804 L154.983,74.3804 L154.983,75.6387 L148.326,75.6387 C147.375,75.6387 146.897,75.8306 146.897,76.2178 L146.897,81.0513 C146.897,81.4395 147.375,81.6304 148.326,81.6304 L152.082,81.6304 C153.035,81.6304 153.507,81.4468 153.507,81.0781 L153.507,78.2471 Z M158.306,76.4126 L158.306,82.8877 L156.785,82.8877 L156.785,74.3804 L158.051,74.3804 L166.521,80.9087 L166.521,74.3804 L168.046,74.3804 L168.046,82.8877 L166.777,82.8877 L158.306,76.4126 Z" id="Combined-Shape"></path>
                <path d="M161.755,0 C156.302,0 151.868,4.4351 151.868,9.8857 C151.868,15.3359 156.302,19.7705 161.755,19.7705 C167.204,19.7705 171.643,15.3359 171.643,9.8857 C171.643,4.4351 167.204,0 161.755,0 Z" id="Fill-4"></path>
                <path d="M160.488,8.3818 C161.313,8.0508 161.891,7.25 161.891,6.3091 C161.891,5.0767 160.887,4.0762 159.658,4.0762 C158.423,4.0762 157.425,5.0767 157.425,6.3091 C157.425,6.7588 157.683,7.436 157.114,7.1411 C156.86,7.0098 155.493,6.2998 154.056,5.5493 C153.326,6.8311 152.912,8.3096 152.912,9.8857 C152.912,14.7686 156.868,18.727 161.755,18.727 L161.755,15.6987 C161.752,15.543 161.748,15.4014 161.743,15.2861 C161.713,14.647 161.258,15.2095 160.866,15.4326 C159.798,16.0508 158.43,15.6851 157.817,14.6167 C157.201,13.5483 157.559,12.1841 158.635,11.563 C159.446,11.0947 160.436,11.1963 161.125,11.7441 C161.347,11.9131 161.7,12.1738 161.73,11.561 C161.755,10.9512 161.725,9.9399 161.725,9.9399 L161.755,9.9219 L161.755,9.8013 C161.755,9.8013 160.86,9.3208 160.347,8.9912 C159.826,8.6655 160.236,8.4873 160.488,8.3818 Z" id="Fill-5"></path>
                <path d="M166.463,7.2222 C166.729,7.0464 168.157,6.3291 169.52,5.6572 C168.017,2.9067 165.104,1.0425 161.755,1.0425 C158.436,1.0425 155.552,2.8691 154.036,5.5703 L156.73,6.9619 C156.865,7.0356 156.994,7.1055 157.094,7.1553 C157.66,7.4507 157.407,6.772 157.407,6.3242 C157.407,5.0928 158.403,4.0913 159.636,4.0913 C160.87,4.0913 161.872,5.0928 161.872,6.3232 C161.872,7.2656 161.291,8.0703 160.469,8.3965 C160.213,8.499 159.807,8.6802 160.325,9.0088 C160.841,9.3335 161.733,9.8144 161.733,9.8144 L161.733,9.8481 L161.836,9.9092 C161.836,9.9092 162.701,9.375 163.237,9.0942 C163.79,8.8081 163.739,9.2485 163.701,9.521 C163.573,10.4014 163.98,11.3057 164.794,11.7744 C165.86,12.3906 167.229,12.0269 167.848,10.957 C168.461,9.8906 168.092,8.5215 167.028,7.9062 C166.637,7.6841 165.918,7.5674 166.463,7.2222 Z" id="Fill-6"></path>
                <path d="M166.459,7.2075 C165.916,7.5537 166.63,7.6724 167.02,7.894 C168.09,8.5161 168.453,9.8794 167.835,10.9478 C167.218,12.0132 165.858,12.3804 164.79,11.7637 C163.972,11.292 163.57,10.3896 163.691,9.5117 C163.733,9.2407 163.778,8.7969 163.231,9.084 C162.693,9.3648 161.836,9.8984 161.836,9.8984 L161.805,9.8823 L161.7,9.9448 C161.7,9.9448 161.73,10.9536 161.7,11.5645 C161.676,12.1777 161.324,11.9175 161.101,11.749 C160.405,11.1987 159.421,11.0996 158.605,11.5689 C157.539,12.1841 157.17,13.5518 157.789,14.6187 C158.403,15.689 159.773,16.0557 160.841,15.438 C161.23,15.2109 161.687,14.6504 161.715,15.291 C161.733,15.6221 161.733,17.2358 161.733,18.727 L161.755,18.727 C166.637,18.727 170.597,14.7686 170.597,9.8857 C170.597,8.3535 170.207,6.9165 169.522,5.6606 L166.809,6.9932 C166.673,7.0742 166.55,7.1475 166.459,7.2075 Z" id="Fill-7"></path>
                <path d="M181.791,82.8877 L180.052,82.8877 L175.594,75.9385 L171.062,82.8877 L169.346,82.8877 L175,74.3804 L176.173,74.3804 L181.791,82.8877 Z M182.954,74.3804 L184.561,74.3804 L184.561,81.6304 L191.459,81.6304 L191.459,82.8877 L182.954,82.8877 L182.954,74.3804 Z M202.489,81.6304 L202.489,82.8877 L196,82.8877 C193.98,82.8877 192.97,82.2373 192.97,80.9292 L192.97,76.3389 C192.97,75.0332 193.98,74.3804 196,74.3804 L202.489,74.3804 L202.489,75.6387 L196,75.6387 C195.05,75.6387 194.578,75.874 194.578,76.3389 L194.578,80.9292 C194.578,81.3984 195.05,81.6304 196,81.6304 L202.489,81.6304 Z M212.707,79.022 L205.747,79.022 L205.747,82.8877 L204.141,82.8877 L204.141,74.3804 L205.747,74.3804 L205.747,77.7661 L212.707,77.7661 L212.707,74.3804 L214.313,74.3804 L214.313,82.8877 L212.707,82.8877 L212.707,79.022 Z M217.678,79.022 L217.678,81.6304 L224.817,81.6304 L224.817,82.8877 L216.07,82.8877 L216.07,74.3804 L224.817,74.3804 L224.817,75.6387 L217.678,75.6387 L217.678,77.7661 L224.452,77.7661 L224.452,79.022 L217.678,79.022 Z M226.467,74.3804 L227.965,74.3804 L233.016,81.3301 L238.043,74.3804 L239.42,74.3804 L239.42,82.8877 L237.873,82.8877 L237.873,76.9795 L233.61,82.8877 L232.291,82.8877 L228.013,76.9922 L228.013,82.8877 L226.467,82.8877 L226.467,74.3804 Z M241.167,82.8877 L242.773,82.8877 L242.773,74.3804 L241.167,74.3804 L241.167,82.8877 Z M251.999,77.728 C254.02,77.728 255.033,78.3403 255.033,79.5649 L255.033,81.0781 C255.033,82.2837 254.02,82.8877 251.999,82.8877 L244.738,82.8877 L244.738,81.6304 L251.999,81.6304 C252.949,81.6304 253.426,81.4468 253.426,81.0781 L253.426,79.5649 C253.426,79.1777 252.949,78.9863 251.999,78.9863 L247.479,78.9863 C245.46,78.9863 244.447,78.3735 244.447,77.1484 L244.447,76.2178 C244.447,74.9951 245.46,74.3804 247.479,74.3804 L254.501,74.3804 L254.501,75.6387 L247.479,75.6387 C246.532,75.6387 246.054,75.8306 246.054,76.2178 L246.054,77.1484 C246.054,77.5356 246.532,77.728 247.479,77.728 L251.999,77.728 Z M256.15,74.3804 L266.553,74.3804 L266.553,75.6387 L262.217,75.6387 L262.217,82.8877 L260.609,82.8877 L260.609,75.6387 L256.15,75.6387 L256.15,74.3804 Z M275.475,77.728 C277.499,77.728 278.509,78.3403 278.509,79.5649 L278.509,81.0781 C278.509,82.2837 277.499,82.8877 275.475,82.8877 L268.214,82.8877 L268.214,81.6304 L275.475,81.6304 C276.427,81.6304 276.901,81.4468 276.901,81.0781 L276.901,79.5649 C276.901,79.1777 276.427,78.9863 275.475,78.9863 L270.956,78.9863 C268.936,78.9863 267.926,78.3735 267.926,77.1484 L267.926,76.2178 C267.926,74.9951 268.936,74.3804 270.956,74.3804 L277.978,74.3804 L277.978,75.6387 L270.956,75.6387 C270.006,75.6387 269.533,75.8306 269.533,76.2178 L269.533,77.1484 C269.533,77.5356 270.006,77.728 270.956,77.728 L275.475,77.728 Z" id="Combined-Shape"></path>
            </g>
        </g>
    </g>
</svg>