<?xml version="1.0" encoding="UTF-8"?>
<svg width="21px" height="20px" viewBox="0 0 21 20" version="1.1" xmlns="http://www.w3.org/2000/svg" xmlns:xlink="http://www.w3.org/1999/xlink">
    <title>Group</title>
    <g id="Page-1" stroke="none" stroke-width="1" fill="none" fill-rule="evenodd">
        <g id="lda-logo" transform="translate(-64.175300, 0.000000)" fill-rule="nonzero">
            <g id="Group" transform="translate(65.043300, 0.000000)">
                <path d="M9.887,0 C4.434,0 0,4.4351 0,9.8857 C0,15.3359 4.434,19.7705 9.887,19.7705 C15.336,19.7705 19.775,15.3359 19.775,9.8857 C19.775,4.4351 15.336,0 9.887,0 Z" id="Fill-4" fill="#4276A5"></path>
                <path d="M8.62,8.3818 C9.445,8.0508 10.023,7.25 10.023,6.3091 C10.023,5.0767 9.019,4.0762 7.79,4.0762 C6.555,4.0762 5.557,5.0767 5.557,6.3091 C5.557,6.7588 5.815,7.436 5.246,7.1411 C4.992,7.0098 3.625,6.2998 2.188,5.5493 C1.458,6.8311 1.044,8.3096 1.044,9.8857 C1.044,14.7686 5,18.727 9.887,18.727 L9.887,15.6987 C9.884,15.543 9.88,15.4014 9.875,15.2861 C9.845,14.647 9.39,15.2095 8.998,15.4326 C7.93,16.0508 6.562,15.6851 5.949,14.6167 C5.333,13.5483 5.691,12.1841 6.767,11.563 C7.578,11.0947 8.568,11.1963 9.257,11.7441 C9.479,11.9131 9.832,12.1738 9.862,11.561 C9.887,10.9512 9.857,9.9399 9.857,9.9399 L9.887,9.9219 L9.887,9.8013 C9.887,9.8013 8.992,9.3208 8.479,8.9912 C7.958,8.6655 8.368,8.4873 8.62,8.3818 Z" id="Fill-5" fill="#4276A5"></path>
                <path d="M14.595,7.2222 C14.861,7.0464 16.289,6.3291 17.652,5.6572 C16.149,2.9067 13.236,1.0425 9.887,1.0425 C6.568,1.0425 3.684,2.8691 2.168,5.5703 L4.862,6.9619 C4.997,7.0356 5.126,7.1055 5.226,7.1553 C5.792,7.4507 5.539,6.772 5.539,6.3242 C5.539,5.0928 6.535,4.0913 7.768,4.0913 C9.002,4.0913 10.004,5.0928 10.004,6.3232 C10.004,7.2656 9.423,8.0703 8.601,8.3965 C8.345,8.499 7.939,8.6802 8.457,9.0088 C8.973,9.3335 9.865,9.8144 9.865,9.8144 L9.865,9.8481 L9.968,9.9092 C9.968,9.9092 10.833,9.375 11.369,9.0942 C11.922,8.8081 11.871,9.2485 11.833,9.521 C11.705,10.4014 12.112,11.3057 12.926,11.7744 C13.992,12.3906 15.361,12.0269 15.98,10.957 C16.593,9.8906 16.224,8.5215 15.16,7.9062 C14.769,7.6841 14.05,7.5674 14.595,7.2222 Z" id="Fill-6" fill="#2E478A"></path>
                <path d="M14.591,7.2075 C14.048,7.5537 14.762,7.6724 15.152,7.894 C16.222,8.5161 16.585,9.8794 15.967,10.9478 C15.35,12.0132 13.99,12.3804 12.922,11.7637 C12.104,11.292 11.702,10.3896 11.823,9.5117 C11.865,9.2407 11.91,8.7969 11.363,9.084 C10.825,9.3648 9.968,9.8984 9.968,9.8984 L9.937,9.8823 L9.832,9.9448 C9.832,9.9448 9.862,10.9536 9.832,11.5645 C9.808,12.1777 9.456,11.9175 9.233,11.749 C8.537,11.1987 7.553,11.0996 6.737,11.5689 C5.671,12.1841 5.302,13.5518 5.921,14.6187 C6.535,15.689 7.905,16.0557 8.973,15.438 C9.362,15.2109 9.819,14.6504 9.847,15.291 C9.865,15.6221 9.865,17.2358 9.865,18.727 L9.887,18.727 C14.769,18.727 18.729,14.7686 18.729,9.8857 C18.729,8.3535 18.339,6.9165 17.654,5.6606 L14.941,6.9932 C14.805,7.0742 14.682,7.1475 14.591,7.2075 Z" id="Fill-7" fill="#FFFFFE"></path>
            </g>
        </g>
    </g>
</svg>